<svg xmlns="http://www.w3.org/2000/svg" viewBox="0 0 480 60" role="img" aria-label="Zyon — Tecnologia em gestão documental">
<defs><mask id="fm"><rect width="96" height="96" fill="#fff"/><rect x="40" y="17.5" width="16" height="5" rx="2.5" fill="#000"/><rect x="40" y="45.5" width="16" height="5" rx="2.5" fill="#000" transform="rotate(-23 48 48)"/><rect x="40" y="73.5" width="16" height="5" rx="2.5" fill="#000"/></mask></defs>
<g transform="translate(-4.5,-6) scale(0.75)"><g mask="url(#fm)"><rect x="6" y="8" width="84" height="24" rx="2" fill="#F5EEE1"/><path d="M62 36 H90 L34 60 H6 Z" fill="#E45D16"/><rect x="6" y="64" width="84" height="24" rx="2" fill="#F5EEE1"/></g></g>
<g transform="translate(-20.964,-14.403) scale(0.88525)"><path d="M117.43503623046875 52.0V48.521662109375L136.024016796875 23.569507812500003H118.79529072265625V16.27148046875H150.92371162109376V19.773558593750003L132.3347310546875 44.70197265625H151.3854388671875V52.0Z M159.63232783203125 62.2552734375Q157.64180058593752 62.2552734375 156.17829130859377 61.9692734375Q154.71478203125002 61.6832734375 154.07621796875 61.46171484375V56.03340234375H157.8459640625Q159.4079826171875 56.03340234375 160.48040073242188 55.4048828125Q161.55281884765625 54.77636328125 162.1991276855469 53.8448828125Q162.8454365234375 52.91340234375 163.10420000000002 52.0L151.76283623046876 24.59148046875H161.30349306640628L165.58607392578125 36.621609375Q165.90892841796875 37.44908984375 166.30359204101563 38.772830078125Q166.69825566406251 40.0965703125 167.1202192871094 41.4841806640625Q167.54218291015627 42.871791015625 167.81518291015627 43.959271484375H168.14752841796877Q168.36592841796877 43.20753125 168.62409204101564 42.247791015625Q168.8822556640625 41.28805078125 169.16771928710938 40.2621806640625Q169.45318291015627 39.236310546875 169.75111015625004 38.304830078125Q170.04903740234377 37.373349609375 170.23776464843752 36.673609375L173.92329130859378 24.59148046875H182.83012958984375L172.86445654296875 50.906857421875Q171.95643828125 53.28867578125 170.827647265625 55.3635849609375Q169.69885625 57.438494140625 168.1831197265625 58.9888837890625Q166.667383203125 60.5392734375 164.57122841796877 61.397273437500004Q162.47507363281252 62.2552734375 159.63232783203125 62.2552734375Z M199.5328736328125 52.624Q194.7185826171875 52.624 191.29956420898438 51.061740234375Q187.88054580078125 49.49948046875 186.05976376953123 46.3133505859375Q184.23898173828124 43.127220703125005 184.23898173828124 38.295740234375Q184.23898173828124 33.412259765625 186.05976376953123 30.252129882812504Q187.88054580078125 27.092000000000002 191.29956420898438 25.529740234375Q194.7185826171875 23.96748046875 199.5328736328125 23.96748046875Q204.37209189453125 23.96748046875 207.79348305664064 25.529740234375Q211.21487421875 27.092000000000002 213.03565625 30.252129882812504Q214.85643828125 33.412259765625 214.85643828125 38.295740234375Q214.85643828125 43.127220703125005 213.03565625 46.3133505859375Q211.21487421875 49.49948046875 207.79348305664064 51.061740234375Q204.37209189453125 52.624 199.5328736328125 52.624ZM199.5328736328125 46.434908203125Q201.76792783203126 46.434908203125 203.1560821777344 45.614207031250004Q204.5442365234375 44.793505859375 205.17748188476563 43.196752929687506Q205.81072724609376 41.6 205.81072724609376 39.281455078125V37.33828515625Q205.81072724609376 35.019740234375 205.17748188476563 33.408857421875Q204.5442365234375 31.797974609375 203.1560821777344 30.977273437500003Q201.76792783203126 30.156572265625 199.5328736328125 30.156572265625Q197.29781943359376 30.156572265625 195.92450146484376 30.977273437500003Q194.55118349609376 31.797974609375 193.91793813476562 33.408857421875Q193.2846927734375 35.019740234375 193.2846927734375 37.33828515625V39.281455078125Q193.2846927734375 41.6 193.91793813476562 43.196752929687506Q194.55118349609376 44.793505859375 195.92450146484376 45.614207031250004Q197.29781943359376 46.434908203125 199.5328736328125 46.434908203125Z M219.49023623046875 52.0V24.59148046875H226.86947421874999L227.50449248046874 28.514078125H227.88669248046875Q228.95851074218749 27.068259765625 230.40006538085936 26.049740234375Q231.84162001953123 25.031220703125 233.63570190429687 24.4993505859375Q235.4297837890625 23.96748046875 237.44523828125 23.96748046875Q240.56098408203124 23.96748046875 242.72242958984373 25.0589091796875Q244.88387509765624 26.150337890625 246.02572958984373 28.343376953125002Q247.16758408203123 30.536416015625 247.16758408203123 33.907376953125V52.0H238.19665478515623V35.107896484375004Q238.19665478515623 33.96275390625 237.90110029296875 33.142052734375Q237.60554580078124 32.3213515625 237.05657319335938 31.7657412109375Q236.5076005859375 31.210130859375003 235.68800073242187 30.936000976562504Q234.86840087890624 30.66187109375 233.8155646484375 30.66187109375Q232.25114667968748 30.66187109375 231.0416287109375 31.3667021484375Q229.8321107421875 32.071533203125 229.13417451171875 33.2590654296875Q228.43623828124998 34.446597656250006 228.43623828124998 35.9749609375V52.0Z" fill="#F5EEE1"/></g>
<g transform="translate(-51.396,-31.028) scale(1.13529)"><path d="M123.34 70.94V80.0H121.66V70.94H118.375V69.53H126.625V70.94Z M130.69 80.0V69.53H137.245V70.94H132.37V73.985H137.065V75.395H132.37V78.59H137.245V80.0Z M145.60000000000002 80.18Q143.60500000000002 80.18 142.63750000000002 78.77000000000001Q141.67000000000002 77.36 141.67000000000002 74.765Q141.67000000000002 72.17 142.63750000000002 70.75999999999999Q143.60500000000002 69.35 145.60000000000002 69.35Q146.365 69.35 146.9275 69.5525Q147.49 69.755 147.895 70.1075Q148.3 70.46000000000001 148.57750000000001 70.9325Q148.85500000000002 71.405 149.03500000000003 71.945L147.52 72.455Q147.4 72.095 147.25 71.78Q147.10000000000002 71.465 146.875 71.24000000000001Q146.65 71.015 146.34250000000003 70.88Q146.03500000000003 70.745 145.585 70.745Q144.47500000000002 70.745 143.96500000000003 71.5925Q143.455 72.44 143.455 73.88V75.65Q143.455 77.09 143.96500000000003 77.9375Q144.47500000000002 78.785 145.585 78.785Q146.03500000000003 78.785 146.34250000000003 78.65Q146.65 78.515 146.875 78.28999999999999Q147.10000000000002 78.065 147.25 77.75Q147.4 77.435 147.52 77.075L149.03500000000003 77.585Q148.85500000000002 78.125 148.57750000000001 78.5975Q148.3 79.07 147.895 79.4225Q147.49 79.775 146.9275 79.9775Q146.365 80.18 145.60000000000002 80.18Z M154.88500000000002 71.945H154.75000000000003V80.0H153.28000000000003V69.53H155.44000000000003L158.51500000000001 77.585H158.65V69.53H160.12V80.0H157.96Z M168.10000000000002 80.18Q167.11 80.18 166.38250000000002 79.8125Q165.65500000000003 79.445 165.18250000000003 78.755Q164.71000000000004 78.065 164.485 77.06Q164.26000000000002 76.055 164.26000000000002 74.765Q164.26000000000002 73.49 164.485 72.47749999999999Q164.71000000000004 71.465 165.18250000000003 70.775Q165.65500000000003 70.08500000000001 166.38250000000002 69.7175Q167.11 69.35 168.10000000000002 69.35Q169.09000000000003 69.35 169.81750000000002 69.7175Q170.54500000000002 70.08500000000001 171.0175 70.775Q171.49 71.465 171.71500000000003 72.47749999999999Q171.94000000000003 73.49 171.94000000000003 74.765Q171.94000000000003 76.055 171.71500000000003 77.06Q171.49 78.065 171.0175 78.755Q170.54500000000002 79.445 169.81750000000002 79.8125Q169.09000000000003 80.18 168.10000000000002 80.18ZM168.10000000000002 78.785Q169.22500000000002 78.785 169.69000000000003 77.9375Q170.15500000000003 77.09 170.15500000000003 75.635V73.88Q170.15500000000003 72.44 169.69000000000003 71.5925Q169.22500000000002 70.745 168.10000000000002 70.745Q166.97500000000002 70.745 166.51000000000002 71.5925Q166.04500000000002 72.44 166.04500000000002 73.88V75.65Q166.04500000000002 77.09 166.51000000000002 77.9375Q166.97500000000002 78.785 168.10000000000002 78.785Z M176.62000000000003 80.0V69.53H178.30000000000004V78.59H183.07000000000002V80.0Z M190.90000000000003 80.18Q189.91000000000003 80.18 189.18250000000003 79.8125Q188.45500000000004 79.445 187.98250000000004 78.755Q187.51000000000005 78.065 187.28500000000003 77.06Q187.06000000000003 76.055 187.06000000000003 74.765Q187.06000000000003 73.49 187.28500000000003 72.47749999999999Q187.51000000000005 71.465 187.98250000000004 70.775Q188.45500000000004 70.08500000000001 189.18250000000003 69.7175Q189.91000000000003 69.35 190.90000000000003 69.35Q191.89000000000004 69.35 192.61750000000004 69.7175Q193.34500000000003 70.08500000000001 193.81750000000002 70.775Q194.29000000000002 71.465 194.51500000000004 72.47749999999999Q194.74000000000004 73.49 194.74000000000004 74.765Q194.74000000000004 76.055 194.51500000000004 77.06Q194.29000000000002 78.065 193.81750000000002 78.755Q193.34500000000003 79.445 192.61750000000004 79.8125Q191.89000000000004 80.18 190.90000000000003 80.18ZM190.90000000000003 78.785Q192.02500000000003 78.785 192.49000000000004 77.9375Q192.95500000000004 77.09 192.95500000000004 75.635V73.88Q192.95500000000004 72.44 192.49000000000004 71.5925Q192.02500000000003 70.745 190.90000000000003 70.745Q189.77500000000003 70.745 189.31000000000003 71.5925Q188.84500000000003 72.44 188.84500000000003 73.88V75.65Q188.84500000000003 77.09 189.31000000000003 77.9375Q189.77500000000003 78.785 190.90000000000003 78.785Z M204.25000000000003 78.56H204.14500000000004Q204.01000000000005 78.875 203.82250000000005 79.16749999999999Q203.63500000000005 79.46 203.35750000000004 79.685Q203.08000000000004 79.91 202.69000000000005 80.045Q202.30000000000004 80.18 201.79000000000005 80.18Q200.15500000000003 80.18 199.33000000000004 78.785Q198.50500000000005 77.39 198.50500000000005 74.84Q198.50500000000005 72.17 199.45000000000005 70.75999999999999Q200.39500000000004 69.35 202.34500000000003 69.35Q203.11000000000004 69.35 203.68750000000006 69.56Q204.26500000000004 69.77 204.67000000000004 70.1225Q205.07500000000005 70.475 205.34500000000003 70.94749999999999Q205.61500000000004 71.42 205.78000000000003 71.945L204.26500000000004 72.455Q204.14500000000004 72.11 203.99500000000003 71.80250000000001Q203.84500000000003 71.495 203.62750000000003 71.255Q203.41000000000003 71.015 203.10250000000002 70.88Q202.79500000000004 70.745 202.36000000000004 70.745Q201.26500000000004 70.745 200.77750000000003 71.5925Q200.29000000000005 72.44 200.29000000000005 73.88V75.545Q200.29000000000005 76.265 200.39500000000004 76.86500000000001Q200.50000000000003 77.465 200.74750000000003 77.8925Q200.99500000000003 78.32 201.39250000000004 78.56Q201.79000000000005 78.8 202.36000000000004 78.8Q203.27500000000003 78.8 203.76250000000005 78.2525Q204.25000000000003 77.705 204.25000000000003 76.85V75.905H202.22500000000005V74.645H205.78000000000003V80.0H204.25000000000003Z M210.40000000000003 80.0V78.725H212.86000000000004V70.805H210.40000000000003V69.53H217.00000000000006V70.805H214.54000000000005V78.725H217.00000000000006V80.0Z M227.53000000000006 80.0 226.73500000000004 77.21H223.40500000000006L222.61000000000004 80.0H220.90000000000006L223.96000000000006 69.53H226.25500000000005L229.31500000000005 80.0ZM225.13000000000005 71.225H225.01000000000005L223.72000000000006 75.815H226.42000000000004Z M244.69000000000005 80.0V69.53H251.24500000000006V70.94H246.37000000000006V73.985H251.06500000000005V75.395H246.37000000000006V78.59H251.24500000000006V80.0Z M261.4750000000001 74.99 261.5200000000001 71.84H261.4000000000001L259.30000000000007 77.225L257.20000000000005 71.84H257.08000000000004L257.12500000000006 74.99V80.0H255.64000000000007V69.53H257.69500000000005L259.30000000000007 73.685H259.4050000000001L261.0250000000001 69.53H262.9600000000001V80.0H261.4750000000001Z M284.05 78.56H283.94500000000005Q283.81 78.875 283.6225 79.16749999999999Q283.435 79.46 283.1575 79.685Q282.88 79.91 282.49 80.045Q282.1 80.18 281.59000000000003 80.18Q279.95500000000004 80.18 279.13 78.785Q278.305 77.39 278.305 74.84Q278.305 72.17 279.25 70.75999999999999Q280.19500000000005 69.35 282.14500000000004 69.35Q282.91 69.35 283.4875 69.56Q284.065 69.77 284.47 70.1225Q284.875 70.475 285.145 70.94749999999999Q285.415 71.42 285.58000000000004 71.945L284.065 72.455Q283.94500000000005 72.11 283.7950000000001 71.80250000000001Q283.64500000000004 71.495 283.4275 71.255Q283.21000000000004 71.015 282.90250000000003 70.88Q282.595 70.745 282.16 70.745Q281.065 70.745 280.5775 71.5925Q280.09000000000003 72.44 280.09000000000003 73.88V75.545Q280.09000000000003 76.265 280.19500000000005 76.86500000000001Q280.3 77.465 280.5475 77.8925Q280.795 78.32 281.1925 78.56Q281.59000000000003 78.8 282.16 78.8Q283.07500000000005 78.8 283.5625 78.2525Q284.05 77.705 284.05 76.85V75.905H282.02500000000003V74.645H285.58000000000004V80.0H284.05Z M290.29 80.0V69.53H296.845V70.94H291.97V73.985H296.665V75.395H291.97V78.59H296.845V80.0Z M304.81 80.18Q303.445 80.18 302.515 79.7Q301.585 79.22 300.98499999999996 78.425L302.065 77.39Q302.66499999999996 78.11 303.34 78.44749999999999Q304.015 78.785 304.87 78.785Q305.85999999999996 78.785 306.3924999999999 78.33500000000001Q306.92499999999995 77.885 306.92499999999995 77.045Q306.92499999999995 76.37 306.53499999999997 76.0025Q306.145 75.635 305.2 75.47L304.06 75.29Q303.31 75.17 302.79999999999995 74.8925Q302.28999999999996 74.615 301.97499999999997 74.23249999999999Q301.65999999999997 73.85 301.5175 73.3775Q301.375 72.905 301.375 72.38Q301.375 70.895 302.335 70.1225Q303.29499999999996 69.35 304.97499999999997 69.35Q306.21999999999997 69.35 307.09749999999997 69.7475Q307.97499999999997 70.145 308.515 70.865L307.465 71.915Q307.03 71.39 306.4375 71.0675Q305.84499999999997 70.745 304.97499999999997 70.745Q304.04499999999996 70.745 303.5575 71.14250000000001Q303.07 71.54 303.07 72.305Q303.07 72.95 303.4525 73.3175Q303.835 73.685 304.81 73.85L305.91999999999996 74.045Q307.33 74.3 307.975 75.07249999999999Q308.62 75.845 308.62 76.955Q308.62 77.675 308.3725 78.275Q308.125 78.875 307.6375 79.295Q307.15 79.715 306.4375 79.9475Q305.72499999999997 80.18 304.81 80.18Z M317.13999999999993 70.94V80.0H315.46V70.94H312.17499999999995V69.53H320.42499999999995V70.94Z M330.12999999999994 80.0 329.3349999999999 77.21H326.00499999999994L325.2099999999999 80.0H323.49999999999994L326.55999999999995 69.53H328.8549999999999L331.9149999999999 80.0ZM327.7299999999999 71.225H327.60999999999996L326.31999999999994 75.815H329.0199999999999ZM328.80999999999995 68.39Q328.43499999999995 68.39 328.16499999999996 68.2775Q327.8949999999999 68.165 327.63999999999993 68.045Q327.29499999999996 67.88 327.0324999999999 67.78999999999999Q326.7699999999999 67.7 326.5299999999999 67.7Q326.2749999999999 67.7 326.0799999999999 67.7975Q325.88499999999993 67.895 325.6599999999999 68.09L325.04499999999996 67.31Q325.2699999999999 66.965 325.6524999999999 66.71000000000001Q326.0349999999999 66.455 326.5899999999999 66.455Q326.9649999999999 66.455 327.2349999999999 66.5675Q327.50499999999994 66.68 327.75999999999993 66.8Q328.1049999999999 66.965 328.36749999999995 67.055Q328.62999999999994 67.145 328.86999999999995 67.145Q329.12499999999994 67.145 329.31999999999994 67.0475Q329.51499999999993 66.95 329.73999999999995 66.755L330.3549999999999 67.535Q330.12999999999994 67.88 329.74749999999995 68.13499999999999Q329.36499999999995 68.39 328.80999999999995 68.39Z M339.0999999999999 80.18Q338.1099999999999 80.18 337.38249999999994 79.8125Q336.6549999999999 79.445 336.1824999999999 78.755Q335.7099999999999 78.065 335.4849999999999 77.06Q335.25999999999993 76.055 335.25999999999993 74.765Q335.25999999999993 73.49 335.4849999999999 72.47749999999999Q335.7099999999999 71.465 336.1824999999999 70.775Q336.6549999999999 70.08500000000001 337.38249999999994 69.7175Q338.1099999999999 69.35 339.0999999999999 69.35Q340.0899999999999 69.35 340.8174999999999 69.7175Q341.5449999999999 70.08500000000001 342.0174999999999 70.775Q342.4899999999999 71.465 342.7149999999999 72.47749999999999Q342.9399999999999 73.49 342.9399999999999 74.765Q342.9399999999999 76.055 342.7149999999999 77.06Q342.4899999999999 78.065 342.0174999999999 78.755Q341.5449999999999 79.445 340.8174999999999 79.8125Q340.0899999999999 80.18 339.0999999999999 80.18ZM339.0999999999999 78.785Q340.2249999999999 78.785 340.68999999999994 77.9375Q341.1549999999999 77.09 341.1549999999999 75.635V73.88Q341.1549999999999 72.44 340.68999999999994 71.5925Q340.2249999999999 70.745 339.0999999999999 70.745Q337.9749999999999 70.745 337.5099999999999 71.5925Q337.0449999999999 72.44 337.0449999999999 73.88V75.65Q337.0449999999999 77.09 337.5099999999999 77.9375Q337.9749999999999 78.785 339.0999999999999 78.785Z M358.6299999999999 69.53H361.7499999999999Q363.7599999999999 69.53 364.72749999999985 70.86500000000001Q365.6949999999999 72.2 365.6949999999999 74.765Q365.6949999999999 77.33 364.72749999999985 78.66499999999999Q363.7599999999999 80.0 361.7499999999999 80.0H358.6299999999999ZM361.64499999999987 78.62Q362.79999999999984 78.62 363.36249999999984 77.8475Q363.92499999999984 77.075 363.92499999999984 75.635V73.895Q363.92499999999984 72.455 363.36249999999984 71.6825Q362.79999999999984 70.91 361.64499999999987 70.91H360.29499999999985V78.62Z M373.29999999999984 80.18Q372.30999999999983 80.18 371.58249999999987 79.8125Q370.85499999999985 79.445 370.3824999999998 78.755Q369.90999999999985 78.065 369.68499999999983 77.06Q369.45999999999987 76.055 369.45999999999987 74.765Q369.45999999999987 73.49 369.68499999999983 72.47749999999999Q369.90999999999985 71.465 370.3824999999998 70.775Q370.85499999999985 70.08500000000001 371.58249999999987 69.7175Q372.30999999999983 69.35 373.29999999999984 69.35Q374.28999999999985 69.35 375.0174999999998 69.7175Q375.74499999999983 70.08500000000001 376.21749999999986 70.775Q376.6899999999998 71.465 376.91499999999985 72.47749999999999Q377.1399999999998 73.49 377.1399999999998 74.765Q377.1399999999998 76.055 376.91499999999985 77.06Q376.6899999999998 78.065 376.21749999999986 78.755Q375.74499999999983 79.445 375.0174999999998 79.8125Q374.28999999999985 80.18 373.29999999999984 80.18ZM373.29999999999984 78.785Q374.42499999999984 78.785 374.8899999999999 77.9375Q375.35499999999985 77.09 375.35499999999985 75.635V73.88Q375.35499999999985 72.44 374.8899999999999 71.5925Q374.42499999999984 70.745 373.29999999999984 70.745Q372.17499999999984 70.745 371.7099999999998 71.5925Q371.24499999999983 72.44 371.24499999999983 73.88V75.65Q371.24499999999983 77.09 371.7099999999998 77.9375Q372.17499999999984 78.785 373.29999999999984 78.785Z M384.99999999999983 80.18Q383.0049999999998 80.18 382.0374999999998 78.77000000000001Q381.0699999999998 77.36 381.0699999999998 74.765Q381.0699999999998 72.17 382.0374999999998 70.75999999999999Q383.0049999999998 69.35 384.99999999999983 69.35Q385.7649999999998 69.35 386.3274999999998 69.5525Q386.8899999999998 69.755 387.29499999999985 70.1075Q387.6999999999998 70.46000000000001 387.97749999999985 70.9325Q388.2549999999998 71.405 388.43499999999983 71.945L386.91999999999985 72.455Q386.79999999999984 72.095 386.64999999999986 71.78Q386.49999999999983 71.465 386.27499999999986 71.24000000000001Q386.04999999999984 71.015 385.74249999999984 70.88Q385.43499999999983 70.745 384.98499999999984 70.745Q383.87499999999983 70.745 383.3649999999998 71.5925Q382.8549999999998 72.44 382.8549999999998 73.88V75.65Q382.8549999999998 77.09 383.3649999999998 77.9375Q383.87499999999983 78.785 384.98499999999984 78.785Q385.43499999999983 78.785 385.74249999999984 78.65Q386.04999999999984 78.515 386.27499999999986 78.28999999999999Q386.49999999999983 78.065 386.64999999999986 77.75Q386.79999999999984 77.435 386.91999999999985 77.075L388.43499999999983 77.585Q388.2549999999998 78.125 387.97749999999985 78.5975Q387.6999999999998 79.07 387.29499999999985 79.4225Q386.8899999999998 79.775 386.3274999999998 79.9775Q385.7649999999998 80.18 384.99999999999983 80.18Z M394.31499999999977 69.53V75.965Q394.31499999999977 76.61 394.3524999999998 77.13499999999999Q394.3899999999998 77.66 394.5699999999998 78.0275Q394.7499999999998 78.395 395.1099999999998 78.59Q395.4699999999998 78.785 396.0999999999998 78.785Q396.7299999999998 78.785 397.0899999999998 78.59Q397.4499999999998 78.395 397.62999999999977 78.0275Q397.8099999999998 77.66 397.8474999999998 77.13499999999999Q397.8849999999998 76.61 397.8849999999998 75.965V69.53H399.56499999999977V75.665Q399.56499999999977 76.79 399.4374999999998 77.6375Q399.3099999999998 78.485 398.9349999999998 79.0475Q398.5599999999998 79.61 397.8774999999998 79.89500000000001Q397.1949999999998 80.18 396.0999999999998 80.18Q395.00499999999977 80.18 394.32249999999976 79.89500000000001Q393.6399999999998 79.61 393.2649999999998 79.0475Q392.8899999999998 78.485 392.7624999999998 77.6375Q392.6349999999998 76.79 392.6349999999998 75.665V69.53Z M409.6749999999998 74.99 409.7199999999998 71.84H409.5999999999998L407.4999999999998 77.225L405.39999999999975 71.84H405.27999999999975L405.32499999999976 74.99V80.0H403.83999999999975V69.53H405.89499999999975L407.4999999999998 73.685H407.6049999999998L409.2249999999998 69.53H411.1599999999998V80.0H409.6749999999998Z M415.68999999999977 80.0V69.53H422.2449999999998V70.94H417.3699999999998V73.985H422.06499999999977V75.395H417.3699999999998V78.59H422.2449999999998V80.0Z M428.48499999999973 71.945H428.34999999999974V80.0H426.8799999999997V69.53H429.03999999999974L432.1149999999997 77.585H432.2499999999997V69.53H433.71999999999974V80.0H431.5599999999997Z M442.5399999999997 70.94V80.0H440.85999999999973V70.94H437.5749999999997V69.53H445.8249999999997V70.94Z M455.5299999999997 80.0 454.7349999999997 77.21H451.4049999999997L450.6099999999997 80.0H448.8999999999997L451.9599999999997 69.53H454.25499999999965L457.31499999999966 80.0ZM453.12999999999965 71.225H453.0099999999997L451.7199999999997 75.815H454.4199999999997Z M461.61999999999966 80.0V69.53H463.29999999999967V78.59H468.06999999999965V80.0Z" fill="#F5EEE1"/></g>
</svg>